<?xml version="1.0" encoding="windows-1252"?>
<!-- Generator: Adobe Illustrator 18.0.0, SVG Export Plug-In . SVG Version: 6.00 Build 0)  -->
<!DOCTYPE svg PUBLIC "-//W3C//DTD SVG 1.1//EN" "http://www.w3.org/Graphics/SVG/1.1/DTD/svg11.dtd">
<svg version="1.1" id="Capa_1" xmlns="http://www.w3.org/2000/svg" xmlns:xlink="http://www.w3.org/1999/xlink" x="0px" y="0px" viewBox="0 0 430.919 430.919" style="enable-background:new 0 0 430.919 430.919;" xml:space="preserve">
<g>
	<path d="M259.047,109.963c-1.855,1.405-3.852,2.706-5.878,3.762c1.581,0.75,3.065,1.701,4.415,2.832   C258.109,114.062,258.603,111.861,259.047,109.963z"/>
	<path d="M234.506,114.252c1.135-0.622,2.333-1.139,3.584-1.54c-0.432-0.965-0.84-2.203-1.229-3.795L234.506,114.252z"/>
	<path d="M219.29,162.176c2.847-1.941,4.48-5.031,4.48-8.478v-15.609l-0.067,0.148c-1.669,3.664-6.13,6.534-10.157,6.534   c-3.747,0-7.317-1.074-10.326-3.107c-1.29-0.872-2.523-1.832-3.688-2.87l-11.501,15.934l21.733,8.522   C212.971,164.509,216.443,164.118,219.29,162.176z"/>
	<path d="M177.51,307.54c-4.44-3.61-8.35-7.83-11.61-12.54c-1.47,18.96-31.48,78.98-82.94,78.98c-12.62,0-22.89-10.27-22.89-22.89   c0-9.32,7.59-16.91,16.91-16.91c6.69,0,12.13,5.44,12.13,12.13c0,3.87,3.14,7,7,7c3.87,0,7-3.13,7-7   c0-14.41-11.72-26.13-26.13-26.13c-17.04,0-30.91,13.87-30.91,30.91c0,20.34,16.55,36.89,36.89,36.89   c33.93,0,57.8-20.98,71.85-38.57C166.22,335.11,173.88,319.68,177.51,307.54z"/>
	<path d="M353.93,320.18c-14.41,0-26.13,11.72-26.13,26.13c0,3.87,3.14,7,7,7c3.87,0,7-3.13,7-7c0-6.69,5.44-12.13,12.13-12.13   c9.33,0,16.91,7.59,16.91,16.91c0,12.62-10.26,22.89-22.89,22.89c-51.46,0-81.47-60.02-82.94-78.98   c-3.26,4.71-7.17,8.93-11.61,12.54c3.63,12.14,11.29,27.57,22.71,41.87c14.05,17.59,37.91,38.57,71.84,38.57   c20.34,0,36.89-16.55,36.89-36.89C384.84,334.05,370.98,320.18,353.93,320.18z"/>
	<path d="M215.46,321.02c-10.04,0-19.51-2.47-27.84-6.83c-12.27,32.45-24.53,64.9-36.79,97.35c41.65,15.73,87.61,15.73,129.25,0   c-12.26-32.45-24.52-64.9-36.79-97.35C234.96,318.55,225.5,321.02,215.46,321.02z"/>
	<path d="M217.172,77.692c4.67-1.809,8.357-5.329,10.38-9.911l0-0.001l0.122-0.275c0.908-2.057,2.345-3.814,4.151-5.11   c-0.786-1.213-1.886-2.202-3.189-2.844c-2.621-0.195-15.107-1.266-24.321-4.587v22.982   C208.494,79.387,213.002,79.308,217.172,77.692z"/>
	<path d="M259.384,17.36c0.497-2.442-1.223-4.779-3.702-5.031l-46.419-4.725c-2.389-0.243-4.497,1.556-4.633,3.953l-1.067,18.841   l51.977,5.866L259.384,17.36z"/>
	<path d="M204.619,139.592c2.629,1.776,5.754,2.679,8.927,2.679c3.065,0,6.611-2.282,7.882-5.071l6.95-15.257l9.533-21.59   c0.914,7.083,2.191,12.585,3.987,13.187c7.498,2.515,22.672-9.684,24.985-16.082c0.914-2.529-6.321-23.514-7.322-27.692   c-1.879-7.841-1.933-21.955-1.849-28.323c0.024-1.861-1.369-3.43-3.219-3.631l-50.5-5.483c-1.479-0.161-2.903,0.61-3.578,1.936   l-4.32,8.489c-3.176,10.49,24.644,13.599,31.612,14.211c1.254,0.11,2.485,0.492,3.508,1.225c1.802,1.291,3.144,3.12,3.852,5.211   c-2.198,0.981-4.058,2.739-5.107,5.114l-0.122,0.275c-4.741,10.737-17.288,15.597-28.025,10.856l-8.71,19.426   C186.498,113.806,191.668,130.843,204.619,139.592z"/>
	<path d="M123.468,178.901c11.332,0,21.115-6.73,25.581-16.4c-2.9-1.625-5.659-2.999-8.028-4.096   c-2.965,6.759-9.713,11.497-17.553,11.497c-10.568,0-19.167-8.598-19.167-19.167c0-10.568,8.598-19.167,19.167-19.167   c7.021,0,13.156,3.807,16.494,9.453c2.145-0.921,4.652-1.042,7.044-0.08l3.33,1.34c-3.599-11.413-14.282-19.713-26.869-19.713   c-15.531,0-28.167,12.635-28.167,28.166S107.937,178.901,123.468,178.901z"/>
	<path d="M165.256,150.977l-19.183-7.717c-0.811-0.326-1.659-0.488-2.503-0.488c-1.155,0-2.302,0.302-3.337,0.899   c-1.792,1.034-2.988,2.801-3.28,4.85c-0.419,2.934,1.179,5.833,3.887,7.051c6.056,2.724,14.134,6.925,21.159,12.487   c-0.144-2.125-0.232-3.867-0.287-5.164l0,0c-0.03-0.714-0.107-1.439-0.189-2.208l-0.096-0.929   C161.093,156.363,162.524,153.088,165.256,150.977z"/>
	<path d="M173.242,148.725l12.453,4.966l11.132-15.423L171.38,119.67h0l-6.556-4.791l-6.356-4.645l0,0   c-3.807,4.037-3.976,10.302-0.356,14.508C163.156,130.603,169.776,139.444,173.242,148.725z"/>
	<path d="M155.91,270.02c-0.47-3.01-0.71-6.1-0.71-9.25c0-15.524,5.907-29.685,15.583-40.377   c-1.598-5.047-4.378-14.506-5.453-22.363H16.56c-9.6,0-16.56,7.88-16.56,16.55c0,2.53,0.59,5.12,1.88,7.61   c15.24,29.39,45.58,47.83,78.69,47.83H155.91z"/>
	<path d="M262.467,132.889c0.023-9.901-7.651-18.352-17.547-18.647c-10.248-0.305-18.651,7.912-18.651,18.091v21.365   c0,8.991-9.05,15.163-17.42,11.88l-34.816-13.653c-5.27-2.067-10.642,2.25-10.12,7.593c0.105,1.079,0.249,2.147,0.294,3.23   c0.208,4.99,1.03,18.853,4.1,35.282c0,0,2.737,13.666,4.713,20.01c4.039,13.917,9.907,27.903,18.435,38.774   c1.966,2.506,17.209,14.671,20.967,8.919c0,0,31.462-47.144,33.997-52.03c0.729-1.406,1.453-2.91,2.141-4.41   c3.053-6.653,5.461-13.581,7.185-20.695C260.159,170.378,262.423,151.681,262.467,132.889z"/>
	<path d="M240.937,227.098c-9.841,15.151-25.516,38.646-26.435,40.022c-0.735,1.125-2.192,2.516-4.884,2.632   c-0.113,0.005-0.228,0.007-0.343,0.007c-7.201,0-18.24-9.431-19.787-11.403c-4.031-5.139-7.678-11.214-10.922-18.155   c-3.411,6.09-5.362,13.103-5.362,20.566c0,23.299,18.955,42.253,42.253,42.253c23.299,0,42.253-18.955,42.253-42.253   C257.71,247.035,251.117,234.82,240.937,227.098z"/>
	<path d="M414.35,198.03H255.525c-1.277,4.939-3.989,10.446-5.554,13.394c15.548,10.905,25.739,28.95,25.739,49.346   c0,3.15-0.24,6.24-0.71,9.25h75.34c16.56,0,32.42-4.61,46.05-12.89c13.63-8.29,25.03-20.24,32.65-34.94   C434.75,211.18,426.76,198.03,414.35,198.03z"/>
</g>
<g>
</g>
<g>
</g>
<g>
</g>
<g>
</g>
<g>
</g>
<g>
</g>
<g>
</g>
<g>
</g>
<g>
</g>
<g>
</g>
<g>
</g>
<g>
</g>
<g>
</g>
<g>
</g>
<g>
</g>
<script xmlns=""/></svg>